<svg width="282" height="70" viewBox="0 0 282 70" fill="none" xmlns="http://www.w3.org/2000/svg">
<path fill-rule="evenodd" clip-rule="evenodd" d="M42.1006 13.2739L62.8016 19.0554L41.8965 6.78154L21.1956 1L42.1006 13.2739Z" fill="#D392FF"/>
<path fill-rule="evenodd" clip-rule="evenodd" d="M62.8017 18.8489V46.5311L41.6062 34.1773V6.49512L62.8017 18.8489Z" fill="#D392FF"/>
<path fill-rule="evenodd" clip-rule="evenodd" d="M62.8016 46.1581L41.8965 67.9175L20.9915 55.7301L41.8965 33.9707L62.8016 46.1581Z" fill="#D392FF"/>
<path fill-rule="evenodd" clip-rule="evenodd" d="M41.606 67.7266L20.9051 61.945L0 49.6711L20.7009 55.4527L41.606 67.7266Z" fill="#D392FF"/>
<path fill-rule="evenodd" clip-rule="evenodd" d="M21.1955 61.4465V35.0922L0 22.9806V50.12L21.1955 61.4465Z" fill="#D090FC"/>
<path fill-rule="evenodd" clip-rule="evenodd" d="M21.1955 35.1483L42.391 13.1874L21.4859 1L0 22.9805L21.1955 35.1483Z" fill="#D090FC"/>
<path fill-rule="evenodd" clip-rule="evenodd" d="M41.606 13.5603V13.5603L21.1956 1V1L41.606 13.5603Z" fill="#D392FF"/>
<path d="M41.9986 13.7512L62.8016 19.4445V46.5276L41.9986 67.9175L21.1956 62.2243V35.1411L41.9986 13.7512Z" fill="url(#paint0_linear_7_1936)"/>
<path d="M250.672 69.344C247.408 69.344 244.432 68.768 241.744 67.616C239.056 66.464 236.944 64.8 235.408 62.624C233.872 60.448 233.104 57.792 233.104 54.656C233.104 51.456 233.872 48.832 235.408 46.784C236.944 44.672 239.056 43.104 241.744 42.08C244.432 40.992 247.44 40.448 250.768 40.448H266.608V36.992C266.608 33.664 265.616 31.04 263.632 29.12C261.712 27.2 258.832 26.24 254.992 26.24C251.216 26.24 248.272 27.168 246.16 29.024C244.048 30.816 242.608 33.248 241.84 36.32L234.736 34.016C235.504 31.392 236.72 29.024 238.384 26.912C240.048 24.736 242.256 23.008 245.008 21.728C247.824 20.384 251.184 19.712 255.088 19.712C261.104 19.712 265.776 21.28 269.104 24.416C272.432 27.488 274.096 31.84 274.096 37.472V58.688C274.096 60.608 274.992 61.568 276.784 61.568H281.104V68H274.48C272.368 68 270.672 67.424 269.392 66.272C268.112 65.056 267.472 63.456 267.472 61.472V60.992H266.32C265.616 62.208 264.656 63.488 263.44 64.832C262.288 66.112 260.688 67.168 258.64 68C256.592 68.896 253.936 69.344 250.672 69.344ZM251.536 62.816C256.016 62.816 259.632 61.504 262.384 58.88C265.2 56.192 266.608 52.448 266.608 47.648V46.592H251.056C248.048 46.592 245.552 47.264 243.568 48.608C241.648 49.888 240.688 51.84 240.688 54.464C240.688 57.088 241.68 59.136 243.664 60.608C245.712 62.08 248.336 62.816 251.536 62.816Z" fill="black"/>
<path d="M206.723 69.344C201.987 69.344 197.827 68.352 194.243 66.368C190.659 64.32 187.875 61.472 185.891 57.824C183.907 54.176 182.915 49.952 182.915 45.152V44C182.915 39.136 183.907 34.88 185.891 31.232C187.875 27.584 190.627 24.768 194.147 22.784C197.667 20.736 201.699 19.712 206.243 19.712C210.659 19.712 214.563 20.672 217.955 22.592C221.347 24.448 224.003 27.136 225.923 30.656C227.843 34.176 228.803 38.304 228.803 43.04V46.496H190.499C190.691 51.552 192.323 55.52 195.395 58.4C198.467 61.216 202.307 62.624 206.915 62.624C210.947 62.624 214.051 61.696 216.227 59.84C218.403 57.984 220.067 55.776 221.219 53.216L227.747 56.384C226.787 58.368 225.443 60.352 223.715 62.336C222.051 64.32 219.843 65.984 217.091 67.328C214.403 68.672 210.947 69.344 206.723 69.344ZM190.595 40.256H221.123C220.867 35.904 219.363 32.512 216.611 30.08C213.923 27.648 210.467 26.432 206.243 26.432C201.955 26.432 198.435 27.648 195.683 30.08C192.931 32.512 191.235 35.904 190.595 40.256Z" fill="black"/>
<path d="M153.102 68L136.302 21.056H144.366L158.478 62.336H159.822L173.934 21.056H181.998L165.198 68H153.102Z" fill="black"/>
<path d="M123.427 68.0001V0.800049H131.011V68.0001H123.427Z" fill="black"/>
<path d="M88.368 69.344C85.104 69.344 82.128 68.768 79.44 67.616C76.752 66.464 74.64 64.8 73.104 62.624C71.568 60.448 70.8 57.792 70.8 54.656C70.8 51.456 71.568 48.832 73.104 46.784C74.64 44.672 76.752 43.104 79.44 42.08C82.128 40.992 85.1361 40.448 88.4641 40.448H104.304V36.992C104.304 33.664 103.312 31.04 101.328 29.12C99.4081 27.2 96.5281 26.24 92.6881 26.24C88.9121 26.24 85.9681 27.168 83.856 29.024C81.7441 30.816 80.304 33.248 79.536 36.32L72.432 34.016C73.2 31.392 74.416 29.024 76.08 26.912C77.744 24.736 79.952 23.008 82.704 21.728C85.52 20.384 88.88 19.712 92.784 19.712C98.8001 19.712 103.472 21.28 106.8 24.416C110.128 27.488 111.792 31.84 111.792 37.472V58.688C111.792 60.608 112.688 61.568 114.48 61.568H118.8V68H112.176C110.064 68 108.368 67.424 107.088 66.272C105.808 65.056 105.168 63.456 105.168 61.472V60.992H104.016C103.312 62.208 102.352 63.488 101.136 64.832C99.9841 66.112 98.3841 67.168 96.3361 68C94.2881 68.896 91.632 69.344 88.368 69.344ZM89.2321 62.816C93.7121 62.816 97.3281 61.504 100.08 58.88C102.896 56.192 104.304 52.448 104.304 47.648V46.592H88.7521C85.7441 46.592 83.248 47.264 81.264 48.608C79.344 49.888 78.384 51.84 78.384 54.464C78.384 57.088 79.376 59.136 81.36 60.608C83.408 62.08 86.0321 62.816 89.2321 62.816Z" fill="black"/>
<defs>
<linearGradient id="paint0_linear_7_1936" x1="41.9986" y1="13.7512" x2="41.9986" y2="67.9175" gradientUnits="userSpaceOnUse">
<stop stop-color="white"/>
<stop offset="1" stop-color="#E2E6FF" stop-opacity="0"/>
</linearGradient>
</defs>
</svg>
